<svg width="40" height="40" viewBox="0 0 40 40" fill="none" xmlns="http://www.w3.org/2000/svg">
<g clip-path="url(#clip0_141_631)">
<path d="M20.0866 0.79353C16.2855 0.793538 12.5698 1.9207 9.40929 4.03249C6.24879 6.14427 3.78548 9.14583 2.33087 12.6576C0.876248 16.1693 0.495653 20.0336 1.23721 23.7617C1.97877 27.4897 3.80917 30.9142 6.49695 33.602C10.1012 37.2062 14.9896 39.2311 20.0868 39.2311C25.184 39.2311 30.0724 37.2062 33.6766 33.602C37.2809 29.9977 39.3057 25.1093 39.3057 20.0121C39.3057 14.9149 37.2809 10.0265 33.6766 6.42228C31.8961 4.63208 29.7782 3.21281 27.4454 2.24663C25.1127 1.28046 22.6115 0.786559 20.0866 0.79353ZM33.0134 32.9391C29.5805 36.3456 24.9376 38.253 20.1014 38.2437C15.2652 38.2344 10.6297 36.3091 7.20992 32.8894C3.79015 29.4697 1.86479 24.8342 1.8554 19.998C1.84602 15.1617 3.75337 10.5188 7.15984 7.08587C10.5928 3.67935 15.2356 1.77193 20.0719 1.78124C24.9081 1.79055 29.5436 3.71585 32.9634 7.13556C36.3831 10.5553 38.3085 15.1907 38.3179 20.027C38.3273 24.8632 36.4199 29.5061 33.0134 32.9391Z" fill="#AE9273"/>
<path d="M19.6276 8.56885C13.3175 8.56885 8.1839 13.7024 8.1839 20.0125C8.1839 26.3226 13.3175 31.4561 19.6276 31.4561C25.2652 31.4561 29.9635 27.3581 30.901 21.9847H35.1172C35.6773 21.9779 36.2122 21.7506 36.606 21.3521C36.9997 20.9536 37.2205 20.416 37.2205 19.8558C37.2205 19.2956 36.9997 18.758 36.606 18.3595C36.2122 17.961 35.6773 17.7337 35.1172 17.7269H30.8414C29.7795 12.508 25.155 8.56885 19.6276 8.56885ZM19.6276 30.5186C13.8344 30.5186 9.1214 25.8056 9.1214 20.0125C9.1214 14.2195 13.8344 9.50635 19.6276 9.50635C25.4207 9.50635 30.1337 14.2194 30.1337 20.0125C30.1337 25.8056 25.4207 30.5186 19.6276 30.5186ZM35.1172 18.6642C35.4298 18.6693 35.7279 18.7971 35.9472 19.0199C36.1665 19.2428 36.2894 19.543 36.2894 19.8556C36.2894 20.1683 36.1665 20.4685 35.9472 20.6914C35.7279 20.9142 35.4298 21.042 35.1172 21.0471H31.0234C31.0541 20.7061 31.0707 20.3611 31.0707 20.0124C31.0705 19.5617 31.0439 19.1115 30.9909 18.664L35.1172 18.6642Z" fill="#AE9273"/>
<path d="M19.7458 10.9775C17.9534 10.9775 16.2012 11.509 14.7109 12.5048C13.2206 13.5006 12.059 14.916 11.3731 16.572C10.6872 18.2279 10.5077 20.0501 10.8574 21.808C11.2071 23.566 12.0702 25.1808 13.3376 26.4482C14.605 27.7156 16.2198 28.5787 17.9778 28.9284C19.7357 29.2781 21.5579 29.0986 23.2138 28.4127C24.8698 27.7268 26.2852 26.5652 27.281 25.0749C28.2768 23.5846 28.8083 21.8324 28.8083 20.04C28.8056 17.6373 27.8499 15.3338 26.1509 13.6349C24.452 11.9359 22.1485 10.9802 19.7458 10.9775ZM19.7458 28.165C18.1388 28.165 16.5679 27.6885 15.2318 26.7957C13.8956 25.9029 12.8542 24.634 12.2393 23.1493C11.6243 21.6647 11.4634 20.031 11.7769 18.4549C12.0904 16.8788 12.8642 15.4311 14.0005 14.2948C15.1368 13.1585 16.5846 12.3847 18.1607 12.0712C19.7368 11.7577 21.3704 11.9186 22.8551 12.5335C24.3397 13.1485 25.6087 14.1899 26.5015 15.526C27.3943 16.8622 27.8708 18.4331 27.8708 20.04C27.8683 22.1942 27.0115 24.2594 25.4883 25.7826C23.9651 27.3058 21.8999 28.1626 19.7458 28.165Z" fill="#AE9273"/>
<path d="M17.913 13.5745C17.0009 13.8336 16.1539 14.2825 15.4274 14.8919C14.701 15.5012 14.1115 16.2573 13.6978 17.1105C13.6435 17.2224 13.6359 17.3512 13.6767 17.4687C13.7174 17.5862 13.8031 17.6827 13.915 17.737C14.0269 17.7913 14.1558 17.7989 14.2733 17.7581C14.3908 17.7174 14.4873 17.6317 14.5416 17.5198C14.8975 16.7856 15.4046 16.1349 16.0296 15.6105C16.6546 15.086 17.3834 14.6996 18.1682 14.4766C18.2281 14.4604 18.2842 14.4326 18.3333 14.3946C18.3824 14.3566 18.4234 14.3092 18.454 14.2552C18.4847 14.2013 18.5043 14.1417 18.5117 14.0801C18.5191 14.0185 18.5143 13.9561 18.4974 13.8963C18.4805 13.8366 18.4519 13.7809 18.4133 13.7323C18.3747 13.6837 18.3268 13.6433 18.2725 13.6133C18.2181 13.5834 18.1583 13.5645 18.0966 13.5579C18.0349 13.5512 17.9725 13.5569 17.913 13.5745Z" fill="#AE9273"/>
</g>
<defs>
<clipPath id="clip0_141_631">
<rect width="40" height="40" fill="white"/>
</clipPath>
</defs>
</svg>
