<svg width="40" height="40" viewBox="0 0 40 40" fill="none" xmlns="http://www.w3.org/2000/svg">
<path d="M34.668 0.78125H29.5261C28.1469 0.780899 26.8157 1.28785 25.7861 2.20556C24.7565 3.12327 24.1004 4.38762 23.9427 5.75781L23.5702 8.98984H17.4402C17.2967 7.37899 16.5393 5.885 15.3247 4.81713C14.1102 3.74927 12.5315 3.18929 10.9155 3.25313C7.53125 3.38336 4.81609 6.2482 4.8639 9.6393C4.88466 11.2952 5.55785 12.8761 6.73727 14.0387C7.91669 15.2013 9.50713 15.8516 11.1632 15.8485H11.1761L13.167 37.3745C13.2116 37.8795 13.4442 38.3493 13.8188 38.6909C14.1934 39.0324 14.6827 39.2208 15.1896 39.2188H27.8598C28.367 39.221 28.8565 39.0325 29.2313 38.6907C29.606 38.3489 29.8386 37.8787 29.8828 37.3734L31.5348 19.3939C31.5392 19.3688 31.5416 19.3433 31.5418 19.3178L32.4437 9.50164C32.4497 9.43675 32.4421 9.37132 32.4213 9.30954C32.4006 9.24777 32.3672 9.19099 32.3233 9.14285C32.2794 9.0947 32.2259 9.05624 32.1663 9.02992C32.1066 9.00361 32.0422 8.99001 31.977 8.99H24.5139L24.8741 5.865C25.0055 4.7234 25.5521 3.67001 26.41 2.90542C27.2679 2.14083 28.377 1.71846 29.5261 1.71875H34.668C34.7924 1.71875 34.9116 1.66936 34.9995 1.58146C35.0874 1.49355 35.1368 1.37432 35.1368 1.25C35.1368 1.12568 35.0874 1.00645 34.9995 0.918544C34.9116 0.830636 34.7924 0.78125 34.668 0.78125ZM23.462 9.9275L22.4766 18.4773C21.4541 18.6247 20.8586 19.1665 20.3254 19.6541C19.7555 20.1752 19.2633 20.625 18.249 20.625C17.2347 20.625 16.7429 20.175 16.1732 19.6539C15.5496 19.0836 14.8428 18.4371 13.4647 18.4371C13.0942 18.4339 12.7255 18.4889 12.3721 18.6001L12.111 15.777C13.46 15.5684 14.7063 14.932 15.6663 13.9616C15.7484 13.8794 15.7971 13.7696 15.8029 13.6536C15.8087 13.5375 15.7711 13.4235 15.6976 13.3335L12.914 9.92727L23.462 9.9275ZM11.1632 14.911C9.75349 14.9141 8.39952 14.3607 7.3955 13.3712C6.39149 12.3816 5.81857 11.0358 5.80125 9.62617C5.76062 6.73945 8.07101 4.3007 10.9515 4.18992C11.0229 4.18711 11.0938 4.18586 11.1648 4.18586C12.4903 4.18594 13.7689 4.6769 14.7539 5.56404C15.7388 6.45119 16.3603 7.67165 16.4985 8.99H11.9259C11.8371 8.98997 11.7502 9.01515 11.6752 9.06258C11.6002 9.11002 11.5402 9.17778 11.5021 9.25798C11.4641 9.33818 11.4497 9.42752 11.4604 9.51562C11.4712 9.60371 11.5068 9.68694 11.563 9.75562L14.6938 13.5868C13.7151 14.4395 12.4613 14.9098 11.1632 14.911ZM28.949 37.2876C28.9251 37.5596 28.7999 37.8128 28.5982 37.9968C28.3964 38.1809 28.1329 38.2824 27.8598 38.2812H15.1896C14.9166 38.2824 14.6532 38.1809 14.4515 37.997C14.2498 37.8131 14.1245 37.5601 14.1005 37.2882L12.4615 19.5663C12.779 19.4335 13.1206 19.3684 13.4647 19.375C14.4787 19.375 14.9708 19.8249 15.5405 20.346C16.1641 20.9162 16.8709 21.5625 18.249 21.5625C19.6271 21.5625 20.3342 20.916 20.9579 20.3457C21.3858 19.9545 21.7699 19.6035 22.3641 19.4527L20.8798 32.3264C20.8655 32.4499 20.9009 32.574 20.9782 32.6714C21.0554 32.7688 21.1682 32.8316 21.2918 32.8458C21.4153 32.8601 21.5394 32.8247 21.6368 32.7474C21.7342 32.6701 21.7969 32.5573 21.8112 32.4338L23.3151 19.3883C24.1443 19.4641 24.5969 19.8754 25.1114 20.3457C25.7354 20.916 26.4425 21.5625 27.8212 21.5625C29.1798 21.5625 29.8859 20.9347 30.5032 20.3705L28.949 37.2876ZM31.4629 9.9275L30.625 19.0477C30.3697 19.2337 30.1268 19.4363 29.898 19.6541C29.3281 20.1752 28.8359 20.625 27.8214 20.625C26.8069 20.625 26.3142 20.1749 25.7441 19.6537C25.1819 19.1398 24.5504 18.5659 23.4226 18.457L24.4062 9.9275H31.4629Z" fill="#AE9273"/>
<path d="M9.08024 7.50126C9.10451 7.51895 9.13044 7.53423 9.15767 7.54689L10.1639 8.01665C10.2341 8.04942 10.3113 8.06429 10.3886 8.05993C10.466 8.05558 10.541 8.03212 10.6071 7.99167C10.6731 7.95122 10.7281 7.89503 10.7671 7.82813C10.8062 7.76123 10.828 7.6857 10.8307 7.60829L10.8698 6.49837C10.8708 6.46842 10.869 6.43844 10.8643 6.40884C10.8352 6.22496 10.7613 6.0511 10.6489 5.90264C10.5366 5.75418 10.3894 5.63571 10.2204 5.55773C10.0513 5.47974 9.86568 5.44465 9.67984 5.45556C9.494 5.46647 9.31372 5.52304 9.15496 5.62026C8.99621 5.71748 8.86388 5.85236 8.7697 6.01293C8.67551 6.17351 8.62239 6.35484 8.61502 6.54085C8.60766 6.72687 8.64628 6.91183 8.72747 7.07935C8.80866 7.24687 8.92991 7.39179 9.08048 7.50126H9.08024ZM9.55681 6.54032C9.56674 6.49925 9.58978 6.46252 9.62244 6.43569C9.6551 6.40887 9.69561 6.39341 9.73783 6.39164C9.78006 6.38988 9.82171 6.40191 9.8565 6.42591C9.89128 6.44992 9.9173 6.48459 9.93063 6.5247L9.9186 6.86845L9.60743 6.72321C9.58401 6.6996 9.56704 6.67037 9.55817 6.63831C9.54929 6.60626 9.54879 6.57247 9.55673 6.54017L9.55681 6.54032Z" fill="#AE9273"/>
<path d="M10.0665 10.7891C10.0993 10.719 10.1141 10.6418 10.1098 10.5645C10.1054 10.4872 10.0819 10.4121 10.0415 10.3461C10.0011 10.28 9.94489 10.2251 9.87801 10.186C9.81113 10.147 9.73562 10.1251 9.65823 10.1224L8.54831 10.0834C8.51833 10.0822 8.48831 10.084 8.4587 10.0888C8.20005 10.1297 7.9636 10.259 7.78962 10.4548C7.61564 10.6505 7.51489 10.9005 7.50455 11.1621C7.4942 11.4238 7.57489 11.681 7.73287 11.8898C7.89085 12.0986 8.11636 12.2463 8.37096 12.3075C8.45819 12.3285 8.54758 12.3391 8.63729 12.3391C8.81569 12.3391 8.99156 12.2968 9.15045 12.2157C9.30934 12.1346 9.44673 12.0169 9.55135 11.8724C9.56903 11.8482 9.58431 11.8223 9.59698 11.7951L10.0665 10.7891ZM8.77213 11.3457C8.74204 11.3754 8.70309 11.3945 8.66118 11.4001C8.61928 11.4056 8.57669 11.3974 8.53987 11.3766C8.50306 11.3559 8.47401 11.3236 8.45714 11.2849C8.44026 11.2461 8.43648 11.2029 8.44635 11.1618C8.454 11.1296 8.46975 11.1 8.49211 11.0756C8.51447 11.0512 8.54269 11.033 8.57409 11.0227L8.91737 11.0347L8.77213 11.3457Z" fill="#AE9273"/>
<path d="M8.41047 9.78449C8.44011 9.77979 8.46922 9.77225 8.49742 9.76199L9.54117 9.38254C9.61395 9.35608 9.67904 9.312 9.73063 9.25425C9.78221 9.19649 9.81868 9.12685 9.83678 9.05156C9.85488 8.97626 9.85405 8.89766 9.83435 8.82277C9.81465 8.74787 9.77671 8.67903 9.72391 8.62238L8.96648 7.80988C8.94604 7.78793 8.92351 7.76802 8.89922 7.75043C8.75475 7.64545 8.58749 7.57614 8.41111 7.54816C8.23472 7.52018 8.05423 7.53433 7.88436 7.58944C7.71449 7.64455 7.56007 7.73907 7.43371 7.86527C7.30735 7.99147 7.21264 8.14577 7.15732 8.31557C7.10199 8.48537 7.08762 8.66585 7.11538 8.84227C7.14314 9.01868 7.21225 9.18603 7.31704 9.33063C7.42184 9.47524 7.55936 9.593 7.71837 9.67429C7.87738 9.75559 8.05337 9.79812 8.23195 9.7984C8.29173 9.7984 8.35141 9.79375 8.41047 9.78449ZM8.06773 8.76793C8.04565 8.73187 8.03592 8.6896 8.04 8.64751C8.04409 8.60542 8.06177 8.56581 8.09037 8.53467C8.11897 8.50353 8.15693 8.48255 8.19852 8.4749C8.24011 8.46726 8.28305 8.47337 8.32086 8.4923L8.55523 8.74355L8.2325 8.86074C8.1994 8.86061 8.16689 8.85201 8.13805 8.83576C8.10921 8.81952 8.085 8.79617 8.06773 8.76793Z" fill="#AE9273"/>
<path d="M11.8342 12.5424C11.8295 12.5127 11.8219 12.4836 11.8117 12.4553L11.4323 11.4117C11.4058 11.3389 11.3617 11.2738 11.304 11.2222C11.2462 11.1706 11.1766 11.1341 11.1013 11.116C11.026 11.0979 10.9473 11.0987 10.8724 11.1185C10.7975 11.1382 10.7287 11.1761 10.672 11.2289L9.85955 11.9864C9.83757 12.0068 9.81764 12.0293 9.80001 12.0536C9.69058 12.2042 9.61997 12.3795 9.59444 12.5639C9.56891 12.7483 9.58924 12.9361 9.65365 13.1108C9.71805 13.2854 9.82453 13.4415 9.96366 13.5652C10.1028 13.6889 10.2703 13.7763 10.4513 13.8198C10.6323 13.8633 10.8212 13.8615 11.0013 13.8145C11.1815 13.7676 11.3473 13.6769 11.484 13.5506C11.6207 13.4243 11.7242 13.2662 11.7852 13.0903C11.8463 12.9145 11.863 12.7263 11.8339 12.5424H11.8342ZM10.8177 12.885C10.7816 12.9071 10.7393 12.9169 10.6973 12.9128C10.6552 12.9087 10.6156 12.8911 10.5844 12.8625C10.5532 12.8339 10.5323 12.7959 10.5246 12.7543C10.5169 12.7128 10.523 12.6698 10.542 12.632L10.7932 12.3976L10.9104 12.7204C10.9103 12.7535 10.9017 12.786 10.8855 12.8148C10.8692 12.8436 10.8459 12.8678 10.8177 12.885Z" fill="#AE9273"/>
<path d="M11.1907 6.44755L11.5703 7.49122C11.5968 7.56402 11.6408 7.62912 11.6986 7.68072C11.7564 7.73231 11.826 7.76879 11.9013 7.78689C11.9766 7.80499 12.0553 7.80415 12.1302 7.78444C12.2051 7.76474 12.2739 7.72678 12.3306 7.67396L13.1431 6.91661C13.165 6.89614 13.185 6.87359 13.2026 6.84927C13.312 6.69868 13.3826 6.52342 13.4082 6.33902C13.4337 6.15462 13.4133 5.96678 13.3489 5.79212C13.2845 5.61746 13.178 5.46138 13.0389 5.3377C12.8998 5.21403 12.7323 5.12657 12.5513 5.08308C12.3703 5.03959 12.1813 5.04141 12.0012 5.08838C11.8211 5.13535 11.6553 5.22602 11.5186 5.35235C11.3818 5.47868 11.2784 5.63679 11.2174 5.81265C11.1563 5.98852 11.1396 6.17673 11.1687 6.3606C11.1732 6.39023 11.1806 6.41935 11.1907 6.44755ZM12.1848 6.01786C12.2208 5.9958 12.2631 5.98608 12.3052 5.99017C12.3472 5.99425 12.3868 6.01192 12.418 6.04051C12.4491 6.06909 12.4701 6.10704 12.4777 6.14861C12.4854 6.19018 12.4793 6.23311 12.4604 6.27091L12.2091 6.50528L12.092 6.18255C12.0921 6.14946 12.1007 6.11696 12.1169 6.08813C12.1332 6.0593 12.1565 6.03511 12.1848 6.01786Z" fill="#AE9273"/>
</svg>
