<svg width="40" height="40" viewBox="0 0 40 40" fill="none" xmlns="http://www.w3.org/2000/svg">
<path d="M35.8594 17.3047H35.2569V15.5032C35.2569 13.9548 33.9614 12.6952 32.369 12.6952H30.7409L30.8162 11.8816C30.8237 11.7975 30.8143 11.7128 30.7884 11.6324C30.7624 11.552 30.7206 11.4777 30.6654 11.4138C30.6091 11.3493 30.5404 11.2967 30.4634 11.2593C30.3864 11.2218 30.3027 11.2002 30.2172 11.1957L28.4816 11.1048L28.7316 9.59523C28.7343 9.58555 28.7372 9.57602 28.7394 9.56609C28.7687 9.43377 28.7527 9.29546 28.6941 9.17325C28.6356 9.05105 28.5378 8.95198 28.4163 8.89188L18.8757 3.60203C19.0283 3.45025 19.1495 3.26985 19.2323 3.07116C19.3151 2.87247 19.3579 2.6594 19.3582 2.44414C19.3582 1.52719 18.5938 0.78125 17.6547 0.78125C16.7155 0.78125 15.951 1.52719 15.951 2.44414C15.9515 2.6752 16.0008 2.90354 16.0956 3.11423C16.1905 3.32492 16.3288 3.51319 16.5015 3.66672L7.88067 8.90469C7.83076 8.93331 7.78511 8.96878 7.74505 9.01008L4.02192 9.77461C3.90142 9.79841 3.79055 9.85704 3.70306 9.94325C3.61557 10.0295 3.55531 10.1395 3.52974 10.2596C3.50417 10.3797 3.51442 10.5047 3.55922 10.6191C3.60402 10.7335 3.6814 10.8322 3.78177 10.903L8.1677 14.007L9.64005 23.0715C9.66344 23.2152 9.73592 23.3464 9.84515 23.4426C9.95438 23.5389 10.0936 23.5944 10.2391 23.5995V25.9926H9.65919C9.53256 25.9925 9.40896 26.0313 9.30508 26.1037C9.20119 26.1761 9.12202 26.2787 9.07825 26.3975L4.72239 38.3984C4.68907 38.4904 4.67838 38.5891 4.69123 38.6861C4.70408 38.783 4.74009 38.8755 4.79622 38.9556C4.85339 39.037 4.92931 39.1034 5.01757 39.1492C5.10583 39.195 5.20382 39.2188 5.30325 39.2188H30.8706C30.97 39.2188 31.068 39.195 31.1562 39.1492C31.2445 39.1035 31.3204 39.0371 31.3776 38.9558C31.4337 38.8757 31.4698 38.7832 31.4826 38.6863C31.4955 38.5893 31.4848 38.4907 31.4515 38.3988L27.0956 26.3975C27.0518 26.2787 26.9727 26.1761 26.8688 26.1037C26.7649 26.0313 26.6413 25.9925 26.5147 25.9926H25.9347V23.5995C26.0802 23.5944 26.2194 23.5389 26.3287 23.4427C26.4379 23.3464 26.5104 23.2153 26.5338 23.0716L27.8041 15.2513H29.9252C30.0831 15.2525 30.2356 15.1944 30.3527 15.0885C30.4698 14.9826 30.5428 14.8366 30.5574 14.6795L30.6542 13.6326H32.369C33.4445 13.6326 34.3194 14.4717 34.3194 15.5031V17.3047H33.5836C33.4179 17.3049 33.259 17.3708 33.1418 17.488C33.0247 17.6051 32.9587 17.764 32.9586 17.9297V25.3969C32.9587 25.5626 33.0247 25.7214 33.1418 25.8386C33.259 25.9558 33.4179 26.0217 33.5836 26.0219H35.8594C36.0251 26.0217 36.184 25.9558 36.3012 25.8386C36.4183 25.7214 36.4842 25.5626 36.4844 25.3969V17.9297C36.4842 17.764 36.4183 17.6051 36.3012 17.488C36.184 17.3708 36.0251 17.3049 35.8594 17.3047ZM17.6547 1.71875C17.8523 1.71373 18.044 1.78724 18.1875 1.9232C18.3311 2.05916 18.415 2.24648 18.4207 2.44414C18.4101 2.64013 18.3247 2.82458 18.1822 2.95954C18.0397 3.09451 17.8509 3.16973 17.6546 3.16973C17.4583 3.16973 17.2695 3.09451 17.127 2.95954C16.9845 2.82458 16.8991 2.64013 16.8885 2.44414C16.8942 2.24647 16.9781 2.05914 17.1217 1.92317C17.2653 1.78721 17.457 1.71371 17.6547 1.71875ZM17.3125 4.27094C17.432 4.19657 17.5691 4.15549 17.7098 4.15194C17.8504 4.1484 17.9894 4.18252 18.1125 4.25078L26.8793 9.11156H9.34575L17.3125 4.27094ZM4.9063 10.5502L7.51927 10.0135L7.95677 12.7093L4.9063 10.5502ZM10.5235 22.6632L10.1008 20.0609H26.073L25.6503 22.6632H10.5235ZM30.4115 38.2812H5.76231L9.88231 26.9297H26.2915L30.4115 38.2812ZM11.1766 25.9926V23.6007H24.9969V25.9926H11.1766ZM26.2253 19.1234H9.94856L8.4745 10.0491H27.7064L27.3579 12.1506L26.2253 19.1234ZM29.6497 14.3136H27.9564L28.2831 12.3023L28.3273 12.0355L29.853 12.1155L29.6497 14.3136ZM35.5469 25.0845H33.8961V18.2422H35.5469V25.0845Z" fill="#AE9273"/>
</svg>
