<svg width="40" height="40" viewBox="0 0 40 40" fill="none" xmlns="http://www.w3.org/2000/svg">
<path d="M12.9671 26.7463H1.71875V15.9775C1.71875 15.8532 1.66936 15.734 1.58146 15.6461C1.49355 15.5582 1.37432 15.5088 1.25 15.5088C1.12568 15.5088 1.00645 15.5582 0.918544 15.6461C0.830636 15.734 0.78125 15.8532 0.78125 15.9775V37.9288C0.78125 38.0531 0.830636 38.1723 0.918544 38.2602C1.00645 38.3482 1.12568 38.3975 1.25 38.3975C1.37432 38.3975 1.49355 38.3482 1.58146 38.2602C1.66936 38.1723 1.71875 38.0531 1.71875 37.9288V27.6838H12.7261V37.9288C12.7261 38.0531 12.7755 38.1723 12.8634 38.2602C12.9513 38.3482 13.0705 38.3975 13.1948 38.3975C13.3192 38.3975 13.4384 38.3482 13.5263 38.2602C13.6142 38.1723 13.6636 38.0531 13.6636 37.9288V27.4425C13.6633 27.2578 13.5899 27.0809 13.4593 26.9504C13.3287 26.8198 13.1517 26.7465 12.9671 26.7463Z" fill="#AE9273"/>
<path d="M38.75 15.5088C38.6257 15.5088 38.5065 15.5582 38.4185 15.6461C38.3306 15.734 38.2813 15.8532 38.2813 15.9775V26.7463H27.0329C26.8483 26.7465 26.6713 26.8198 26.5407 26.9504C26.4101 27.0809 26.3367 27.2578 26.3364 27.4425V37.9288C26.3364 38.0531 26.3858 38.1723 26.4737 38.2602C26.5616 38.3482 26.6808 38.3975 26.8052 38.3975C26.9295 38.3975 27.0487 38.3482 27.1366 38.2602C27.2245 38.1723 27.2739 38.0531 27.2739 37.9288V27.6838H38.2813V37.9288C38.2813 38.0531 38.3306 38.1723 38.4185 38.2602C38.5065 38.3482 38.6257 38.3975 38.75 38.3975C38.8743 38.3975 38.9936 38.3482 39.0815 38.2602C39.1694 38.1723 39.2188 38.0531 39.2188 37.9288V15.9775C39.2188 15.8532 39.1694 15.734 39.0815 15.6461C38.9936 15.5582 38.8743 15.5088 38.75 15.5088Z" fill="#AE9273"/>
<path d="M22.2139 37.9118H20.8545V23.0411H29.7015C29.8258 23.0411 29.945 22.9917 30.0329 22.9038C30.1209 22.8159 30.1702 22.6967 30.1702 22.5724C30.1702 22.4481 30.1209 22.3288 30.0329 22.2409C29.945 22.153 29.8258 22.1036 29.7015 22.1036H20.8542V21.5568C20.8542 21.5388 20.8531 21.5208 20.8509 21.503L20.8989 13.0782C21.55 13.6407 22.4973 13.9812 23.5402 13.9483C24.6015 13.9149 25.5734 13.508 26.2067 12.8321C26.3031 12.7294 26.3915 12.6194 26.4709 12.5032C27.0959 13.2922 28.222 13.8009 29.487 13.761C30.5483 13.7276 31.5202 13.3207 32.1535 12.6446C32.3755 12.4174 32.5503 12.1485 32.6679 11.8533C32.7854 11.5582 32.8433 11.2427 32.8383 10.925C32.8504 10.8494 32.8494 10.7723 32.8356 10.6971C32.8324 10.6534 32.8264 10.5684 32.8254 10.5432C32.8247 10.5238 32.8229 10.5044 32.8198 10.4851C32.6566 7.89863 31.2838 5.52066 28.9341 3.76676C26.8341 2.19926 24.1684 1.29449 21.3271 1.16715C21.2102 1.15712 21.0929 1.15331 20.9756 1.15574C20.6967 1.14959 20.4166 1.15074 20.135 1.15918C16.3727 1.27777 12.907 2.74183 10.6266 5.17582C8.98664 6.92621 8.0961 9.0798 8.10258 11.2649C8.10072 11.2847 8.10012 11.3047 8.10078 11.3246L8.10703 11.5093C8.10889 11.5676 8.12169 11.625 8.14477 11.6786C8.41586 13.0145 9.87289 13.9774 11.6328 13.9224C12.8393 13.8843 13.8906 13.3636 14.4804 12.5936C15.0618 13.4217 16.177 13.9756 17.4491 13.9755C17.4951 13.9755 17.5416 13.9747 17.5879 13.9732C18.497 13.9446 19.3398 13.6413 19.961 13.1301L19.9099 22.1041H11.2734C11.1491 22.1041 11.0299 22.1535 10.942 22.2414C10.8541 22.3293 10.8047 22.4485 10.8047 22.5729C10.8047 22.6972 10.8541 22.8164 10.942 22.9043C11.0299 22.9922 11.1491 23.0416 11.2734 23.0416H19.9167V37.9118H18.5573C18.433 37.9118 18.3138 37.9612 18.2259 38.0491C18.138 38.137 18.0886 38.2563 18.0886 38.3806C18.0886 38.5049 18.138 38.6241 18.2259 38.712C18.3138 38.7999 18.433 38.8493 18.5573 38.8493H22.2141C22.3385 38.8493 22.4577 38.7999 22.5456 38.712C22.6335 38.6241 22.6829 38.5049 22.6829 38.3806C22.6829 38.2563 22.6335 38.137 22.5456 38.0491C22.4577 37.9612 22.3385 37.9118 22.2141 37.9118H22.2139ZM25.5226 12.1911C25.0651 12.6794 24.313 12.986 23.5107 13.0114C22.1289 13.0563 20.9778 12.2869 20.9446 11.2995C20.9434 11.256 20.9445 11.2125 20.9478 11.1692C20.9489 11.1531 20.9492 11.137 20.9486 11.1209C20.9356 10.7345 20.9252 10.3593 20.9164 9.99316L20.9242 8.58691C20.9245 8.52641 20.9131 8.46642 20.8906 8.41027C20.8626 5.01019 21.0255 2.75535 21.2063 2.10035C21.2274 2.10121 21.2487 2.10191 21.2698 2.10285C22.3596 2.20746 23.4196 3.07004 24.2828 4.5723C25.2425 6.24246 25.8276 8.47785 25.9424 10.8896C25.9368 10.9308 25.9368 10.9724 25.9424 11.0136C25.9485 11.0566 25.9525 11.0999 25.9543 11.1433C25.9702 11.6115 25.7283 11.9715 25.5226 12.1911ZM31.8946 10.7589C31.8955 10.7862 31.8988 10.8132 31.9044 10.8399C31.9008 10.8785 31.8998 10.9173 31.9013 10.956C31.9169 11.424 31.6747 11.7841 31.4694 12.0036C31.0119 12.4919 30.2598 12.7986 29.4575 12.8239C28.0761 12.8681 26.9246 12.0995 26.8914 11.1119C26.8902 11.0684 26.8913 11.0248 26.8947 10.9814C26.8982 10.928 26.8925 10.8744 26.8779 10.8229C26.7534 8.27324 26.1255 5.89699 25.096 4.10543C24.7594 3.50517 24.3451 2.95193 23.8638 2.46004C28.4033 3.53066 31.7614 6.80051 31.8946 10.7589ZM11.6036 12.9849C10.2514 13.0266 9.11039 12.2842 9.04071 11.3222C9.01555 9.33152 9.79852 7.43082 11.311 5.81629C12.9785 4.03652 15.3423 2.81715 17.9935 2.32824C16.8852 3.09433 16.0491 3.95457 15.4291 4.96043C14.432 6.57762 13.9821 8.62894 14.0525 11.2251C14.0479 11.2433 14.0444 11.2618 14.042 11.2805C13.9549 12.1954 12.8838 12.9445 11.6036 12.9849ZM19.5703 12.2155C19.1127 12.7039 18.3606 13.0105 17.5584 13.0358C16.1796 13.08 15.0309 12.315 14.9925 11.3308C14.9925 11.324 14.9925 11.3159 14.9925 11.3114C14.9925 11.3093 14.9925 11.3073 14.992 11.3052C14.9116 8.84597 15.3156 6.93121 16.2273 5.45254C17.0554 4.10879 18.3361 3.04254 20.2484 2.10207C20.1552 2.57082 20.0663 3.34816 20.0077 4.67238C19.9421 6.15863 19.9327 8.01777 19.9791 9.99863L19.9706 11.4963C19.9026 11.767 19.7646 12.0151 19.5703 12.2155Z" fill="#AE9273"/>
</svg>
