<svg width="40" height="40" viewBox="0 0 40 40" fill="none" xmlns="http://www.w3.org/2000/svg">
<path d="M3.75732 35.4282H25.8828C26.0071 35.4282 26.1263 35.3788 26.2142 35.2909C26.3022 35.203 26.3515 35.0838 26.3515 34.9595C26.3515 34.8352 26.3022 34.7159 26.2142 34.628C26.1263 34.5401 26.0071 34.4907 25.8828 34.4907H3.75732C3.633 34.4907 3.51378 34.5401 3.42587 34.628C3.33796 34.7159 3.28857 34.8352 3.28857 34.9595C3.28857 35.0838 3.33796 35.203 3.42587 35.2909C3.51378 35.3788 3.633 35.4282 3.75732 35.4282Z" fill="#AE9273"/>
<path d="M3.75732 31.6943H23.8001C23.9245 31.6943 24.0437 31.645 24.1316 31.557C24.2195 31.4691 24.2689 31.3499 24.2689 31.2256C24.2689 31.1013 24.2195 30.982 24.1316 30.8941C24.0437 30.8062 23.9245 30.7568 23.8001 30.7568H3.75732C3.633 30.7568 3.51378 30.8062 3.42587 30.8941C3.33796 30.982 3.28857 31.1013 3.28857 31.2256C3.28857 31.3499 3.33796 31.4691 3.42587 31.557C3.51378 31.645 3.633 31.6943 3.75732 31.6943Z" fill="#AE9273"/>
<path d="M3.75732 27.96H19.9349C20.0592 27.96 20.1785 27.9106 20.2664 27.8227C20.3543 27.7348 20.4037 27.6155 20.4037 27.4912C20.4037 27.3669 20.3543 27.2477 20.2664 27.1598C20.1785 27.0718 20.0592 27.0225 19.9349 27.0225H3.75732C3.633 27.0225 3.51378 27.0718 3.42587 27.1598C3.33796 27.2477 3.28857 27.3669 3.28857 27.4912C3.28857 27.6155 3.33796 27.7348 3.42587 27.8227C3.51378 27.9106 3.633 27.96 3.75732 27.96Z" fill="#AE9273"/>
<path d="M3.75732 24.2256H15.456C15.5803 24.2256 15.6995 24.1762 15.7875 24.0883C15.8754 24.0004 15.9247 23.8812 15.9247 23.7568C15.9247 23.6325 15.8754 23.5133 15.7875 23.4254C15.6995 23.3375 15.5803 23.2881 15.456 23.2881H3.75732C3.633 23.2881 3.51378 23.3375 3.42587 23.4254C3.33796 23.5133 3.28857 23.6325 3.28857 23.7568C3.28857 23.8812 3.33796 24.0004 3.42587 24.0883C3.51378 24.1762 3.633 24.2256 3.75732 24.2256Z" fill="#AE9273"/>
<path d="M3.75732 20.4917H11.9815C12.1059 20.4917 12.2251 20.4423 12.313 20.3544C12.4009 20.2665 12.4503 20.1473 12.4503 20.0229C12.4503 19.8986 12.4009 19.7794 12.313 19.6915C12.2251 19.6036 12.1059 19.5542 11.9815 19.5542H3.75732C3.633 19.5542 3.51378 19.6036 3.42587 19.6915C3.33796 19.7794 3.28857 19.8986 3.28857 20.0229C3.28857 20.1473 3.33796 20.2665 3.42587 20.3544C3.51378 20.4423 3.633 20.4917 3.75732 20.4917Z" fill="#AE9273"/>
<path d="M3.75732 16.7578H8.1724C8.29672 16.7578 8.41595 16.7084 8.50386 16.6205C8.59177 16.5326 8.64115 16.4134 8.64115 16.2891C8.64115 16.1647 8.59177 16.0455 8.50386 15.9576C8.41595 15.8697 8.29672 15.8203 8.1724 15.8203H3.75732C3.633 15.8203 3.51378 15.8697 3.42587 15.9576C3.33796 16.0455 3.28857 16.1647 3.28857 16.2891C3.28857 16.4134 3.33796 16.5326 3.42587 16.6205C3.51378 16.7084 3.633 16.7578 3.75732 16.7578Z" fill="#AE9273"/>
<path d="M3.75708 13.0514H3.77271L5.45513 12.9955C5.5794 12.9913 5.69693 12.938 5.78187 12.8472C5.86681 12.7564 5.9122 12.6356 5.90806 12.5113C5.90392 12.387 5.85058 12.2695 5.75978 12.1846C5.66897 12.0996 5.54815 12.0542 5.42388 12.0584L3.74146 12.1144C3.61714 12.1165 3.49873 12.1678 3.41229 12.2572C3.32585 12.3466 3.27845 12.4666 3.28052 12.5909C3.28259 12.7153 3.33397 12.8337 3.42334 12.9201C3.51271 13.0066 3.63276 13.054 3.75708 13.0519V13.0514Z" fill="#AE9273"/>
<path d="M6.28807 0.970547C6.20081 0.881352 6.0889 0.820255 5.96669 0.795093C5.84448 0.76993 5.71753 0.781849 5.60214 0.829321C5.48675 0.876793 5.38816 0.957654 5.31904 1.06153C5.24991 1.16541 5.21339 1.28757 5.21416 1.41234V8.02953L2.25783 5.0007C2.17058 4.91148 2.05867 4.85036 1.93644 4.82518C1.81421 4.8 1.68725 4.81192 1.57184 4.85939C1.45643 4.90687 1.35784 4.98774 1.28871 5.09163C1.21958 5.19553 1.18306 5.31771 1.18385 5.4425V38.5883C1.18352 38.755 1.24934 38.915 1.36686 39.0332C1.48439 39.1515 1.64402 39.2182 1.81073 39.2189H34.1588C34.2828 39.2182 34.4037 39.1809 34.5066 39.1119C34.6095 39.0429 34.6898 38.9451 34.7375 38.8307C34.7851 38.7164 34.7981 38.5905 34.7747 38.4688C34.7513 38.3471 34.6926 38.235 34.606 38.1465L31.7194 35.1888H38.1889C38.3128 35.188 38.4337 35.1508 38.5366 35.0817C38.6395 35.0127 38.7198 34.9149 38.7675 34.8006C38.8152 34.6862 38.8281 34.5603 38.8048 34.4387C38.7814 34.317 38.7228 34.2049 38.6361 34.1163L6.28807 0.970547ZM2.12158 38.2814V6.20328L33.4277 38.2814H2.12158ZM30.8047 34.2513L28.0203 31.3986H29.9132C30.0375 31.3986 30.1568 31.3492 30.2447 31.2613C30.3326 31.1734 30.382 31.0542 30.382 30.9298C30.382 30.8055 30.3326 30.6863 30.2447 30.5984C30.1568 30.5105 30.0375 30.4611 29.9132 30.4611H27.1054L24.376 27.6642H27.8303C27.9547 27.6642 28.0739 27.6148 28.1618 27.5269C28.2497 27.439 28.2991 27.3198 28.2991 27.1955C28.2991 27.0711 28.2497 26.9519 28.1618 26.864C28.0739 26.7761 27.9547 26.7267 27.8303 26.7267H23.461L20.7315 23.9298H23.9649C24.0893 23.9298 24.2085 23.8805 24.2964 23.7925C24.3843 23.7046 24.4337 23.5854 24.4337 23.4611C24.4337 23.3368 24.3843 23.2175 24.2964 23.1296C24.2085 23.0417 24.0893 22.9923 23.9649 22.9923H19.8165L17.0872 20.1955H19.4856C19.61 20.1955 19.7292 20.1461 19.8171 20.0582C19.905 19.9703 19.9544 19.851 19.9544 19.7267C19.9544 19.6024 19.905 19.4832 19.8171 19.3953C19.7292 19.3074 19.61 19.258 19.4856 19.258H16.1725L13.4431 16.4611H16.0117C16.1361 16.4611 16.2553 16.4117 16.3432 16.3238C16.4311 16.2359 16.4805 16.1167 16.4805 15.9923C16.4805 15.868 16.4311 15.7488 16.3432 15.6609C16.2553 15.573 16.1361 15.5236 16.0117 15.5236H12.5282L9.79877 12.7267H12.2025C12.3268 12.7267 12.4461 12.6773 12.534 12.5894C12.6219 12.5015 12.6713 12.3823 12.6713 12.258C12.6713 12.1336 12.6219 12.0144 12.534 11.9265C12.4461 11.8386 12.3268 11.7892 12.2025 11.7892H8.88385L6.15166 8.99039V2.17305L37.4578 34.2512L30.8047 34.2513Z" fill="#AE9273"/>
<path d="M7.78722 9.02104H7.80284L9.48534 8.9651C9.60966 8.96096 9.72725 8.9076 9.81222 8.81676C9.8972 8.72592 9.94261 8.60505 9.93847 8.48073C9.93432 8.35641 9.88096 8.23883 9.79013 8.15385C9.69929 8.06887 9.57841 8.02346 9.45409 8.0276L7.77167 8.08362C7.64735 8.08569 7.52895 8.13707 7.4425 8.22644C7.35606 8.31581 7.30866 8.43586 7.31073 8.56018C7.31281 8.6845 7.36418 8.80291 7.45355 8.88935C7.54292 8.97579 7.66298 9.02319 7.7873 9.02112L7.78722 9.02104Z" fill="#AE9273"/>
</svg>
